# xmcd
# 
# Track frame offsets:
#	150
#	17290
#	34370
#	51285
#	65102
#	82552
#	98212
#	117372
#	136344
#	153320
#	172703
#
# Disc length: 2568 seconds
#
# Revision: 1
# Processed by: cddbd v1.4PL0 Copyright (c) Steve Scherf et al.
# Submitted via: Audio-CD-Archiv 2.10.446
#
DISCID=800a060b
DTITLE=Lee Aaron - Lee Aaron
DYEAR=1900
DGENRE=blues
TTITLE0=Powerline
TTITLE1=Hands Are Tied
TTITLE2=Only Human
TTITLE3=Empty Heart
TTITLE4=Number One
TTITLE5=Don't Rain On My Parade
TTITLE6=Goin' Off The Deep End
TTITLE7=If This Is Love
TTITLE8=Eye For An Eye
TTITLE9=Heartbeat Of The World
TTITLE10=Dream With Me
EXTD=
EXTT0=
EXTT1=
EXTT2=
EXTT3=
EXTT4=
EXTT5=
EXTT6=
EXTT7=
EXTT8=
EXTT9=
EXTT10=
PLAYORDER=
